<svg aria-hidden="true" style="position: absolute; width: 0; height: 0; overflow: hidden;" version="1.1" xmlns="http://www.w3.org/2000/svg" xmlns:xlink="http://www.w3.org/1999/xlink">
<defs>
<symbol id="icon-burger-mobile" viewBox="0 0 32 32">
<path stroke-linejoin="miter" stroke-linecap="round" stroke-miterlimit="4" stroke-width="3" d="M6.37 7.879h24.13"></path>
<path stroke-linejoin="miter" stroke-linecap="round" stroke-miterlimit="4" stroke-width="3" d="M6.37 21.818h24.13"></path>
<path stroke-linejoin="miter" stroke-linecap="round" stroke-miterlimit="4" stroke-width="3" d="M14.022 14.848h16.478"></path>
</symbol>
<symbol id="icon-burger-tablet" viewBox="0 0 32 32">
<path stroke-linejoin="miter" stroke-linecap="round" stroke-miterlimit="4" stroke-width="2.4" d="M6.070 8.351h24.73"></path>
<path stroke-linejoin="miter" stroke-linecap="round" stroke-miterlimit="4" stroke-width="2.4" d="M6.070 21.927h24.73"></path>
<path stroke-linejoin="miter" stroke-linecap="round" stroke-miterlimit="4" stroke-width="2.4" d="M13.722 15.139h17.078"></path>
</symbol>
<symbol id="icon-check-mark" viewBox="0 0 32 32">
<path fill="#fff" style="fill: var(--color1, #fff)" d="M16.947 17.867c-0.124 0.125-0.271 0.224-0.434 0.292s-0.337 0.103-0.513 0.103c-0.176 0-0.35-0.035-0.513-0.103s-0.31-0.167-0.434-0.292l-6.107-6.12c-0.124-0.125-0.271-0.224-0.434-0.292s-0.337-0.103-0.513-0.103c-0.176 0-0.35 0.035-0.513 0.103s-0.31 0.167-0.434 0.292c-0.248 0.25-0.388 0.588-0.388 0.94s0.139 0.69 0.388 0.94l6.12 6.12c0.75 0.749 1.767 1.17 2.827 1.17s2.077-0.421 2.827-1.17l6.12-6.12c0.246-0.248 0.385-0.584 0.387-0.933 0.001-0.175-0.033-0.349-0.099-0.512s-0.164-0.31-0.288-0.435c-0.124-0.125-0.271-0.224-0.434-0.292s-0.337-0.103-0.513-0.103c-0.176 0-0.35 0.035-0.513 0.103s-0.31 0.167-0.434 0.292l-6.107 6.12z"></path>
</symbol>
<symbol id="icon-close-btn-mobile" viewBox="0 0 32 32">
<path fill="none" stroke="#fff" style="stroke: var(--color1, #fff)" stroke-linejoin="round" stroke-linecap="round" stroke-miterlimit="4" stroke-width="2.4" d="M24 8l-16 16"></path>
<path fill="none" stroke="#fff" style="stroke: var(--color1, #fff)" stroke-linejoin="round" stroke-linecap="round" stroke-miterlimit="4" stroke-width="2.4" d="M8 8l16 16"></path>
</symbol>
<symbol id="icon-close-btn-tablet" viewBox="0 0 32 32">
<path fill="none" stroke="#fff" style="stroke: var(--color1, #fff)" stroke-linejoin="round" stroke-linecap="round" stroke-miterlimit="4" stroke-width="3" d="M24 8l-16 16"></path>
<path fill="none" stroke="#fff" style="stroke: var(--color1, #fff)" stroke-linejoin="round" stroke-linecap="round" stroke-miterlimit="4" stroke-width="3" d="M8 8l16 16"></path>
</symbol>
<symbol id="icon-error" viewBox="0 0 32 32">
<path fill="#ee323d" style="fill: var(--color2, #ee323d)" d="M15 0c1.385 0 2.714 0.177 3.984 0.531s2.469 0.854 3.594 1.5c1.125 0.646 2.135 1.427 3.031 2.344s1.677 1.932 2.344 3.047 1.172 2.307 1.516 3.578c0.344 1.271 0.521 2.604 0.531 4 0 1.385-0.177 2.714-0.531 3.984s-0.854 2.469-1.5 3.594c-0.646 1.125-1.427 2.135-2.344 3.031s-1.932 1.677-3.047 2.344-2.307 1.172-3.578 1.516c-1.271 0.344-2.604 0.521-4 0.531-1.385 0-2.714-0.177-3.984-0.531s-2.469-0.854-3.594-1.5c-1.125-0.646-2.135-1.427-3.031-2.344s-1.677-1.932-2.344-3.047-1.172-2.307-1.516-3.578c-0.344-1.271-0.521-2.604-0.531-4 0-1.385 0.177-2.714 0.531-3.984s0.854-2.469 1.5-3.594c0.646-1.125 1.427-2.135 2.344-3.031s1.932-1.677 3.047-2.344c1.115-0.667 2.307-1.172 3.578-1.516s2.604-0.521 4-0.531zM15 28c1.187 0 2.333-0.156 3.437-0.469s2.141-0.75 3.109-1.312c0.969-0.563 1.849-1.24 2.641-2.031s1.469-1.667 2.031-2.625c0.562-0.958 1-1.995 1.312-3.109s0.469-2.266 0.469-3.453-0.156-2.333-0.469-3.438c-0.312-1.104-0.75-2.141-1.312-3.109s-1.24-1.849-2.031-2.641c-0.792-0.792-1.667-1.469-2.625-2.031s-1.995-1-3.109-1.313c-1.115-0.313-2.266-0.469-3.453-0.469-1.198 0-2.349 0.156-3.453 0.469s-2.135 0.75-3.094 1.313c-0.958 0.563-1.839 1.24-2.641 2.031s-1.479 1.667-2.031 2.625c-0.552 0.958-0.99 1.995-1.313 3.109s-0.479 2.266-0.469 3.453c0 1.187 0.156 2.333 0.469 3.437s0.75 2.141 1.313 3.109c0.563 0.969 1.24 1.849 2.031 2.641s1.667 1.469 2.625 2.031c0.958 0.562 1.995 1 3.109 1.312s2.266 0.469 3.453 0.469zM14 8h2v10h-2v-10zM14 20h2v2h-2v-2z"></path>
</symbol>
<symbol id="icon-facebook" viewBox="0 0 32 32">
<path d="M19.52 4.64c0.24 0 0.48 0 0.96 0v3.6c-0.24 0-0.72 0-1.2 0s-0.96 0-1.2 0.24c-0.24 0.24-0.24 0.48-0.24 1.040 0 0.48 0 0.8 0 1.28h2.64v3.040h-2.64v13.2h-4.080v-13.28h-2.16v-3.040h2.16v-1.040c0-1.76 0.24-3.040 0.72-3.6 0.72-1.040 2.16-1.52 4.32-1.52 0.24 0.080 0.48 0.080 0.72 0.080z"></path>
</symbol>
<symbol id="icon-instagram" viewBox="0 0 32 32">
<path d="M28.718 10.756c-0.016-1.074-0.215-2.14-0.596-3.145-0.667-1.716-2.024-3.073-3.743-3.737-0.994-0.373-2.044-0.573-3.108-0.596-1.368-0.061-1.801-0.078-5.273-0.078s-3.916 0-5.274 0.078c-1.062 0.023-2.113 0.223-3.106 0.596-1.719 0.664-3.078 2.021-3.743 3.737-0.374 0.992-0.576 2.041-0.596 3.101-0.061 1.367-0.080 1.8-0.080 5.265s0 3.909 0.080 5.265c0.021 1.062 0.222 2.109 0.596 3.104 0.667 1.714 2.024 3.071 3.744 3.735 0.989 0.386 2.040 0.605 3.106 0.639 1.369 0.061 1.803 0.079 5.274 0.079s3.916 0 5.274-0.079c1.062-0.021 2.112-0.221 3.108-0.595 1.719-0.666 3.076-2.022 3.743-3.737 0.374-0.994 0.574-2.041 0.596-3.104 0.061-1.365 0.080-1.798 0.080-5.265-0.003-3.466-0.003-3.906-0.082-5.264zM15.99 22.531c-3.631 0-6.572-2.936-6.572-6.561s2.941-6.561 6.572-6.561c3.628 0 6.572 2.936 6.572 6.561s-2.944 6.561-6.572 6.561zM22.824 10.696c-0.849 0-1.532-0.684-1.532-1.53s0.684-1.53 1.532-1.53c0.846 0 1.531 0.684 1.531 1.53s-0.685 1.53-1.531 1.53z"></path>
<path d="M15.992 19.976c2.211 0 4.004-1.793 4.004-4.004s-1.793-4.004-4.004-4.004c-2.211 0-4.004 1.793-4.004 4.004s1.793 4.004 4.004 4.004z"></path>
</symbol>
<symbol id="icon-youtube" viewBox="0 0 32 32">
<path d="M24.24 6c-1.36-0.080-4.16-0.16-8.4-0.16h-0.56c-4.080 0-6.8 0.080-8.16 0.24-1.84 0.16-3.12 0.64-3.84 1.28-0.64 0.56-1.12 1.6-1.28 2.96-0.080 0.88-0.16 2.72-0.16 5.52v0.4c0 2.64 0.080 4.48 0.24 5.36 0.24 1.28 0.64 2.24 1.44 2.8 0.8 0.64 2.16 1.040 4.080 1.2 1.36 0.080 4.16 0.16 8.4 0.16h0.56c4.080 0 6.8-0.080 8.16-0.24 1.84-0.16 3.12-0.64 3.84-1.28 0.64-0.56 1.12-1.6 1.28-2.96 0.080-0.88 0.16-2.72 0.16-5.52v-0.4c0-2.64-0.080-4.48-0.24-5.36-0.24-1.28-0.64-2.24-1.44-2.8-0.8-0.64-2.16-1.040-4.080-1.2zM21.12 15.84l-8.8 5.28v-10.56l8.8 5.28z"></path>
</symbol>
<symbol id="icon-favicon" viewBox="0 0 32 32">
<path fill="#fff" style="fill: var(--color1, #fff); stroke: var(--color1, #fff)" stroke="#fff" stroke-linejoin="round" stroke-linecap="round" stroke-miterlimit="4" stroke-width="2.2857" d="M27.429 2.286h-22.857c-1.262 0-2.286 1.023-2.286 2.286v22.857c0 1.262 1.023 2.286 2.286 2.286h22.857c1.262 0 2.286-1.023 2.286-2.286v-22.857c0-1.262-1.023-2.286-2.286-2.286z"></path>
<path fill="none" stroke="#000" style="stroke: var(--color2, #000)" stroke-linejoin="round" stroke-linecap="round" stroke-miterlimit="4" stroke-width="2.2857" d="M13.714 10.667h-6.095v10.667h5.714M7.619 16h5.714M17.524 12.191v4.19c0-0.909 0.361-1.781 1.004-2.424s1.515-1.004 2.424-1.004c0.909 0 1.781 0.361 2.424 1.004s1.004 1.515 1.004 2.424v4.952"></path>
</symbol>
</defs>
</svg>
